<?xml version="1.0" standalone="no"?>
<!DOCTYPE svg PUBLIC "-//W3C//DTD SVG 20010904//EN"
 "http://www.w3.org/TR/2001/REC-SVG-20010904/DTD/svg10.dtd">
<svg version="1.0" xmlns="http://www.w3.org/2000/svg"
 width="1637.000000pt" height="1637.000000pt" viewBox="0 0 1637.000000 1637.000000"
 preserveAspectRatio="xMidYMid meet">
<metadata>
Created by potrace 1.14, written by Peter Selinger 2001-2017
</metadata>
<g transform="translate(0.000000,1637.000000) scale(0.100000,-0.100000)"
fill="#000000" stroke="none">
<path d="M6531 12739 c-158 -31 -416 -233 -545 -427 -70 -106 -89 -167 -90
-287 -1 -100 -1 -100 47 -195 39 -78 47 -105 47 -148 0 -46 -5 -60 -34 -95
-56 -69 -216 -318 -216 -337 0 -22 20 -30 77 -30 120 0 292 162 430 406 l22
39 2 -70 c2 -106 4 -121 32 -245 15 -63 27 -118 27 -121 0 -4 17 -16 38 -27
34 -17 41 -18 77 -5 22 7 57 27 77 43 42 34 48 36 48 16 0 -21 53 -56 84 -56
15 0 45 9 67 21 23 11 42 19 43 17 1 -2 8 -22 15 -46 7 -26 22 -49 38 -60 31
-19 123 -25 136 -8 13 18 -4 -137 -19 -165 -21 -41 -84 -93 -200 -161 -60 -36
-143 -88 -184 -115 -41 -28 -127 -79 -190 -113 -139 -76 -200 -122 -350 -262
-63 -59 -135 -121 -160 -139 -25 -18 -80 -63 -122 -99 l-78 -67 -91 -7 c-51
-4 -106 -13 -123 -20 -37 -15 -86 -70 -86 -95 0 -23 -53 -106 -104 -161 -42
-46 -109 -96 -161 -121 -16 -8 -34 -23 -39 -34 -10 -23 -91 -62 -231 -109 -55
-19 -118 -42 -140 -51 -22 -10 -71 -26 -110 -37 -87 -24 -151 -56 -285 -143
-114 -75 -267 -207 -300 -259 -24 -39 -26 -69 -5 -86 13 -11 13 -15 -1 -41
-13 -26 -13 -31 2 -54 9 -14 19 -25 23 -25 4 0 15 -13 24 -30 10 -16 23 -30
29 -30 33 0 106 51 208 146 63 58 145 127 183 152 63 42 68 44 85 29 35 -32
108 -22 228 29 60 26 161 60 224 76 123 31 178 63 231 133 23 30 28 33 39 20
18 -22 27 -19 62 20 58 67 230 166 418 240 52 21 121 51 152 66 32 16 92 43
135 60 43 17 88 37 99 44 12 8 75 34 140 59 172 65 239 94 308 131 59 33 244
114 317 140 l36 13 -11 -41 c-8 -31 -33 -64 -103 -135 -51 -51 -101 -113 -113
-136 -28 -58 -41 -69 -139 -110 -115 -48 -152 -77 -234 -176 -154 -186 -274
-290 -333 -290 -37 0 -104 -53 -193 -152 l-93 -103 -57 -7 c-31 -3 -94 -11
-141 -17 -47 -6 -116 -11 -153 -11 -98 0 -246 -62 -328 -137 l-26 -24 -354 -3
c-377 -4 -557 -17 -819 -60 -80 -14 -152 -27 -160 -31 -11 -4 -19 3 -25 21
-12 31 -70 55 -104 43 -22 -9 -41 -45 -41 -82 0 -19 -17 -27 -133 -65 -300
-98 -579 -244 -802 -420 -309 -245 -427 -429 -498 -777 -21 -103 -22 -135 -22
-515 0 -335 3 -428 18 -538 62 -453 247 -885 492 -1150 122 -131 257 -231 497
-366 430 -242 683 -318 1308 -396 96 -12 180 -24 187 -25 6 -2 14 -30 18 -62
19 -173 57 -294 146 -462 116 -220 195 -317 358 -439 145 -109 279 -164 501
-204 166 -30 437 -30 570 0 168 39 261 74 445 167 303 153 573 319 1107 676
173 116 374 238 824 500 45 26 146 82 224 124 l142 77 96 -47 c113 -54 166
-87 397 -249 198 -138 213 -150 365 -277 243 -203 365 -278 560 -343 108 -36
334 -86 388 -86 17 0 33 -4 36 -9 3 -4 16 -6 30 -4 13 3 27 -1 31 -8 5 -8 4
-10 -3 -5 -7 4 -19 3 -28 -2 -11 -6 -13 -11 -5 -16 6 -4 11 -2 11 4 0 6 8 10
18 8 9 -2 16 2 15 8 -1 7 35 12 111 13 130 2 247 9 253 14 2 3 17 -8 33 -24
16 -16 34 -29 42 -29 7 0 4 6 -7 12 -39 23 -62 57 -30 45 8 -4 17 -2 20 3 9
14 46 7 41 -7 -3 -7 -2 -13 3 -13 5 0 11 10 14 21 5 18 11 21 37 16 19 -4 29
-3 25 3 -3 6 -2 10 3 10 6 0 13 -7 16 -16 3 -8 10 -13 15 -10 5 4 12 1 14 -4
3 -6 4 -5 2 2 -1 7 -8 12 -14 10 -6 -1 -11 2 -11 7 0 8 30 18 80 27 33 6 289
83 355 106 39 14 112 44 162 66 l93 40 18 -29 c17 -27 18 -28 30 -9 8 13 9 20
1 20 -5 0 -8 4 -4 9 3 6 -4 8 -15 6 -28 -5 -25 8 5 21 13 7 23 9 23 5 -1 -3 3
-16 10 -28 8 -14 9 -24 2 -28 -5 -3 -14 -14 -20 -24 -8 -15 -5 -18 13 -17 12
1 33 -5 47 -12 l25 -14 -23 19 c-18 14 -20 21 -10 31 8 8 8 12 1 12 -6 0 -13
-7 -17 -15 -3 -8 -10 -15 -16 -15 -7 0 -6 8 2 23 7 12 11 29 9 37 -2 12 1 11
16 -3 11 -9 23 -14 28 -10 4 5 5 -1 1 -12 -5 -15 -4 -17 4 -8 9 8 9 16 1 30
-6 11 -11 13 -11 5 0 -18 -30 11 -31 30 0 7 -4 4 -8 -6 -4 -11 -10 -15 -14
-10 -10 17 5 29 133 99 347 189 472 276 790 543 88 74 97 79 116 67 19 -12 23
-11 34 10 7 14 16 22 20 20 5 -3 10 2 14 10 8 22 -2 18 -30 -12 -19 -20 -27
-24 -36 -15 -9 9 -8 12 6 12 9 0 15 3 13 8 -3 4 1 13 9 20 8 7 14 10 14 6 0
-4 10 5 21 20 12 15 23 25 25 23 2 -2 24 15 49 38 73 68 223 170 335 229 58
30 222 105 365 166 297 128 365 161 484 235 230 143 370 318 477 599 65 170
78 240 78 441 -1 204 -17 305 -80 486 -128 372 -478 816 -816 1037 -85 55
-256 145 -358 187 -36 15 -66 28 -68 30 -2 2 12 56 31 122 72 243 89 340 89
516 0 108 -5 152 -25 237 -73 301 -143 453 -290 624 -71 81 -138 128 -290 201
-215 103 -365 131 -639 122 l-167 -5 -22 34 c-29 48 -59 66 -99 59 -67 -12
-113 -49 -139 -113 -12 -27 -21 -31 -164 -67 -84 -20 -233 -64 -331 -96 -99
-33 -181 -59 -182 -59 -1 0 4 20 12 45 7 25 11 45 8 45 -3 0 0 9 6 20 11 21
15 109 6 145 -5 22 -31 144 -40 188 -3 15 -9 39 -12 55 -3 15 -6 35 -7 45 -2
24 -33 51 -51 44 -20 -8 -43 -54 -49 -102 -3 -22 -13 -76 -22 -119 -14 -67
-37 -198 -49 -271 -2 -11 -7 -40 -11 -65 l-7 -44 -30 59 -30 58 17 86 c9 47
37 174 62 281 54 231 59 322 26 465 -11 50 -29 126 -39 170 -10 44 -23 85 -29
91 -14 15 -55 10 -66 -7 -13 -21 -28 -102 -35 -182 -3 -40 -7 -83 -10 -97 -2
-14 -6 -52 -9 -85 -5 -48 -45 -305 -69 -435 -2 -14 -5 -27 -5 -29 -1 -3 -14
13 -30 35 -23 31 -28 47 -25 82 1 24 5 51 8 60 3 10 8 40 11 67 14 132 26 228
30 245 2 8 7 38 11 65 3 28 8 52 9 55 2 3 6 37 10 75 4 39 9 84 11 100 24 191
23 255 -4 345 -37 118 -47 137 -72 135 -12 -1 -26 -8 -30 -16 -17 -32 -59
-216 -75 -334 -3 -22 -8 -54 -10 -71 -8 -54 -16 -139 -20 -200 -6 -94 -14
-187 -20 -214 -2 -13 -7 -42 -11 -65 -3 -22 -8 -47 -9 -55 -2 -8 -4 -17 -4
-19 -1 -2 -8 3 -17 10 -13 11 -15 24 -9 69 3 30 8 78 10 105 2 28 6 73 9 100
3 28 8 88 12 135 3 46 7 87 9 90 1 3 6 39 10 80 4 41 9 82 10 91 4 17 13 89
20 159 6 53 13 103 20 145 17 104 2 179 -47 236 -45 51 -81 42 -99 -24 -7 -23
-12 -45 -11 -49 1 -4 -3 -19 -8 -33 -14 -36 -19 -61 -35 -175 -12 -83 -14
-106 -20 -220 -3 -58 -8 -123 -10 -145 -3 -22 -8 -63 -10 -91 -3 -28 -7 -60
-9 -71 -2 -10 -7 -46 -11 -78 -3 -33 -9 -72 -11 -88 l-6 -27 -49 52 c-48 52
-49 52 -44 111 2 32 8 73 14 90 5 18 12 59 16 92 3 33 8 74 10 90 12 96 18
155 20 190 3 47 15 162 21 190 11 53 18 137 16 205 -2 72 -3 76 -37 108 -53
49 -101 38 -111 -28 -3 -19 -23 -155 -30 -200 -2 -19 -11 -75 -20 -125 -8 -49
-17 -103 -20 -120 -2 -16 -6 -41 -9 -55 -6 -32 -12 -83 -20 -145 -7 -60 -16
-123 -21 -150 -3 -11 -5 -39 -5 -62 -1 -38 -3 -41 -20 -30 -10 6 -17 19 -14
27 8 27 16 135 30 380 3 63 8 126 10 140 11 70 19 196 18 288 -1 141 -12 154
-134 168 -41 4 -89 -25 -89 -55 0 -9 -5 -22 -12 -29 -7 -7 -12 -77 -14 -214
-1 -112 -6 -257 -9 -323 -4 -66 -8 -126 -8 -132 -1 -21 -13 -15 -41 17 l-25
31 5 212 c9 315 8 340 -9 378 -8 19 -19 45 -22 59 -11 37 -25 50 -55 50 -24 0
-60 -26 -60 -44 0 -3 -11 -23 -25 -44 -28 -43 -33 -74 -50 -338 -3 -56 -7
-108 -8 -115 -7 -44 -42 -51 -89 -18 l-30 22 7 76 c7 83 16 190 17 206 1 18
-11 96 -17 106 -10 15 -52 10 -70 -7 -9 -9 -40 -29 -68 -43 -49 -25 -53 -29
-62 -78 l-10 -52 -25 19 c-36 28 -103 48 -194 60 -92 12 -112 23 -164 89 -43
56 -92 93 -124 94 -13 0 -48 -3 -79 -7 -54 -8 -56 -7 -125 40 -94 65 -153 86
-239 86 -128 0 -167 13 -239 82 -35 34 -84 93 -109 131 -56 88 -129 156 -190
180 -40 15 -53 16 -93 6 -97 -25 -186 -86 -319 -219 l-80 -80 3 54 c5 75 -32
134 -97 158 -25 9 -57 16 -71 16 -32 0 -39 6 -71 55 -55 85 -79 143 -79 193 0
27 -3 52 -7 56 -4 4 -8 30 -8 58 -1 60 -27 88 -80 88 -30 0 -98 -42 -117 -73
-11 -18 -26 -16 -97 10 -73 26 -245 64 -288 62 -15 -1 -48 -5 -72 -10z m3733
-893 c16 -3 30 -7 32 -9 12 -11 2 -290 -12 -338 -2 -8 -6 -51 -9 -95 -3 -69
-12 -194 -20 -304 -1 -19 -3 -51 -4 -70 l-2 -35 -24 27 c-23 26 -24 34 -24
175 0 82 0 195 0 253 -1 97 4 203 14 275 2 17 4 54 4 83 1 29 5 51 9 48 5 -3
21 -7 36 -10z m-645 -281 l-3 -95 -26 25 c-24 23 -26 31 -22 78 4 48 23 87 44
87 5 0 8 -43 7 -95z m1407 -364 c-2 -3 -7 -40 -10 -81 -11 -126 -27 -264 -31
-280 -6 -21 -45 -295 -50 -349 -2 -25 -7 -62 -10 -84 -6 -35 -9 -38 -22 -24
-18 18 -19 39 -3 132 7 39 14 81 16 95 1 14 5 41 8 60 3 19 8 69 11 110 11
158 40 398 59 475 2 11 5 25 6 30 1 6 8 -10 16 -34 7 -24 12 -46 10 -50z m408
-1146 c3 -33 -5 -85 -21 -152 -23 -92 -28 -103 -55 -114 -16 -6 -30 -10 -33
-8 -3 4 14 99 30 169 3 14 8 41 10 60 3 19 6 42 8 50 2 8 7 38 11 65 4 28 10
57 13 65 7 19 31 -69 37 -135z m-4611 -1155 c-9 -168 -17 -306 -18 -308 -1 -1
-37 -9 -79 -17 -96 -19 -200 -18 -481 0 -121 8 -238 15 -260 15 l-40 1 70 37
c93 50 345 218 476 317 58 45 138 100 177 124 39 24 93 64 119 89 26 26 49 47
50 47 1 -1 -5 -138 -14 -305z m-1643 -185 c-7 -8 -20 -15 -29 -15 -11 1 -8 5
9 15 32 18 35 18 20 0z m710 -111 c0 -2 -7 -4 -15 -4 -8 0 -15 4 -15 10 0 5 7
7 15 4 8 -4 15 -8 15 -10z m6190 -4635 c0 -6 -4 -7 -10 -4 -5 3 -10 11 -10 16
0 6 5 7 10 4 6 -3 10 -11 10 -16z"/>
<path d="M12505 10842 c-44 -7 -74 -25 -102 -60 -42 -52 -50 -70 -57 -127 -12
-95 55 -175 147 -175 28 0 54 10 93 36 98 65 132 178 79 256 -14 21 -35 43
-48 50 -27 14 -85 25 -112 20z"/>
<path d="M12696 10445 c-47 -16 -55 -24 -62 -58 -5 -33 17 -79 48 -99 29 -18
82 -8 111 21 24 24 28 81 7 106 -29 35 -62 44 -104 30z"/>
<path d="M3050 9928 c-21 -22 -49 -78 -55 -108 -3 -17 13 -52 29 -62 36 -24
111 4 140 52 27 46 21 85 -17 114 -42 32 -70 33 -97 4z"/>
<path d="M3717 9852 c-31 -19 -60 -83 -51 -116 8 -34 39 -44 93 -31 61 16 85
47 71 95 -6 19 -14 41 -18 48 -13 20 -65 22 -95 4z"/>
<path d="M3533 9452 c-32 -5 -67 -81 -54 -115 33 -87 178 -23 155 68 -10 40
-46 57 -101 47z"/>
<path d="M3085 9392 c-92 -17 -166 -110 -160 -200 6 -91 93 -124 192 -73 40
20 92 72 94 94 1 7 3 23 5 37 9 79 -61 156 -131 142z"/>
<path d="M3566 9051 c-25 -28 -29 -80 -8 -121 15 -30 22 -35 55 -36 36 -1 40
2 62 46 21 42 22 49 9 76 -24 50 -88 69 -118 35z"/>
<path d="M2569 9013 c-13 -21 -25 -45 -26 -55 -2 -9 -3 -21 -4 -25 -8 -50 16
-84 64 -88 30 -3 42 2 67 27 16 16 30 35 31 41 0 7 2 20 4 29 2 10 -10 37 -25
61 -22 32 -36 43 -59 45 -24 2 -33 -4 -52 -35z"/>
<path d="M3296 8855 c-14 -13 -26 -28 -27 -32 0 -4 -2 -19 -3 -32 -7 -60 93
-86 133 -35 28 35 26 56 -5 93 -31 38 -62 40 -98 6z"/>
<path d="M2950 8812 c-51 -41 -38 -142 18 -142 67 0 121 85 87 137 -19 28 -73
31 -105 5z"/>
<path d="M13730 4925 c0 -8 4 -15 10 -15 5 0 7 7 4 15 -4 8 -8 15 -10 15 -2 0
-4 -7 -4 -15z"/>
<path d="M13758 4928 c11 -13 11 -18 -1 -25 -13 -7 -13 -10 1 -23 14 -13 15
-12 9 3 -3 9 -2 19 3 22 5 3 10 -3 12 -12 3 -14 5 -13 10 5 4 13 4 21 1 18 -4
-3 -16 2 -27 11 -18 15 -19 16 -8 1z"/>
<path d="M13675 4890 c-3 -6 1 -7 9 -4 18 7 21 14 7 14 -6 0 -13 -4 -16 -10z"/>
<path d="M13736 4868 c27 -34 43 -41 46 -23 2 14 31 34 40 29 15 -9 8 4 -9 17
-10 9 -14 9 -10 2 5 -7 -1 -17 -13 -23 -11 -6 -18 -15 -15 -21 4 -5 1 -9 -4
-9 -6 0 -11 4 -11 8 0 11 -35 52 -45 52 -4 0 6 -15 21 -32z"/>
<path d="M13690 4869 c0 -5 -4 -8 -9 -4 -5 3 -12 1 -15 -4 -4 -5 -2 -12 4 -16
6 -4 7 -12 4 -18 -4 -7 -4 -9 1 -5 11 11 47 -11 39 -24 -5 -7 -2 -8 6 -3 10 6
7 13 -12 30 -24 21 -25 24 -10 39 11 10 12 16 4 16 -7 0 -12 -5 -12 -11z"/>
<path d="M13710 4854 c0 -7 27 -34 34 -34 4 0 1 9 -6 20 -12 19 -28 27 -28 14z"/>
<path d="M13813 4853 c4 -6 0 -13 -8 -17 -8 -3 -15 -11 -14 -18 0 -10 2 -10 6
0 7 19 23 4 16 -16 -3 -9 -3 -14 1 -10 12 10 14 58 3 65 -6 3 -7 1 -4 -4z"/>
<path d="M13290 4815 c14 -17 26 -32 28 -35 4 -6 22 23 21 35 0 6 -3 4 -6 -2
-2 -7 -9 -13 -14 -13 -4 0 -7 6 -5 13 1 6 1 8 -2 4 -2 -5 -14 0 -26 10 -17 14
-16 12 4 -12z"/>
<path d="M13260 4811 c0 -6 5 -11 11 -11 5 0 8 -4 5 -9 -3 -5 1 -14 9 -21 10
-9 15 -9 15 -1 0 6 -5 11 -11 11 -5 0 -8 4 -5 9 3 5 -1 14 -9 21 -10 9 -15 9
-15 1z"/>
<path d="M13770 4811 c0 -7 -4 -10 -9 -7 -5 3 -14 -1 -21 -9 -9 -10 -9 -15 -1
-15 6 0 11 6 11 13 0 9 2 9 9 -1 6 -11 10 -10 15 4 3 9 4 19 1 22 -3 3 -5 0
-5 -7z"/>
<path d="M13219 4793 c-13 -17 -13 -17 4 -4 16 13 19 12 23 -5 3 -10 20 -29
38 -41 32 -21 35 -21 50 -4 9 10 16 23 16 29 0 7 5 12 11 12 5 0 7 5 3 11 -4
8 -14 -2 -26 -25 -21 -42 -29 -40 -79 17 -24 28 -26 28 -40 10z"/>
<path d="M13678 4803 c7 -3 16 -2 19 1 4 3 -2 6 -13 5 -11 0 -14 -3 -6 -6z"/>
<path d="M13220 4735 c-7 -14 -16 -23 -18 -20 -3 3 -12 -4 -20 -16 -14 -20
-15 -20 -36 -2 l-21 18 19 -23 c18 -21 20 -21 40 -5 12 10 28 26 37 37 21 25
60 7 52 -24 -3 -11 -9 -20 -14 -20 -5 0 -9 -5 -9 -10 0 -6 7 -6 19 2 10 6 17
18 14 25 -4 9 0 11 11 7 9 -3 14 -10 11 -14 -3 -4 2 -10 10 -13 29 -12 2 24
-40 53 l-42 29 -13 -24z"/>
<path d="M13370 4740 c0 -7 -3 -11 -6 -7 -4 3 -13 -1 -21 -9 -23 -22 -11 -25
17 -4 14 10 21 22 17 26 -4 4 -7 1 -7 -6z"/>
<path d="M13238 4713 c7 -3 16 -2 19 1 4 3 -2 6 -13 5 -11 0 -14 -3 -6 -6z"/>
<path d="M13214 4688 c-4 -6 -3 -8 4 -4 5 3 13 0 15 -6 3 -8 6 -6 6 5 1 19
-14 23 -25 5z"/>
<path d="M13186 4672 c-3 -4 4 -9 15 -9 23 -2 25 3 4 10 -8 4 -16 3 -19 -1z"/>
<path d="M13280 4660 c-9 -6 -10 -10 -3 -10 6 0 15 5 18 10 8 12 4 12 -15 0z"/>
<path d="M13163 4487 c1 -7 -4 -11 -11 -9 -8 1 -11 -2 -7 -8 5 -8 12 -7 23 2
10 7 18 13 20 14 2 1 -4 4 -12 7 -9 4 -15 1 -13 -6z"/>
<path d="M13116 4462 c-4 -12 -12 -22 -17 -22 -5 0 -9 -6 -9 -12 1 -7 10 -2
20 11 13 15 20 18 20 9 0 -8 9 -23 20 -33 11 -10 20 -13 20 -7 0 7 -4 12 -8
12 -5 0 -15 15 -24 32 -14 32 -15 32 -22 10z"/>
<path d="M13191 4463 c-5 -10 -13 -17 -18 -15 -4 2 -8 -1 -9 -7 -2 -7 -1 -8 3
-1 2 5 9 8 13 5 5 -3 14 4 20 15 13 24 5 27 -9 3z"/>
<path d="M12817 4463 c-8 -13 20 -46 32 -38 6 3 11 12 11 18 0 7 -4 6 -10 -3
-9 -14 -11 -13 -14 9 -2 15 -14 23 -19 14z"/>
<path d="M12760 4419 c-19 -17 -27 -27 -18 -24 10 4 24 0 33 -9 9 -8 21 -13
28 -11 7 3 25 -6 41 -20 16 -14 32 -25 35 -25 3 1 -10 14 -29 31 -19 16 -40
27 -47 25 -6 -3 -17 2 -24 10 -10 12 -9 18 5 32 17 16 18 16 11 -8 -4 -17 -3
-21 3 -11 8 11 10 11 15 0 3 -8 6 -9 6 -3 1 5 -5 18 -11 26 -12 15 -16 14 -48
-13z"/>
<path d="M13190 4430 c-8 -5 -10 -10 -5 -10 6 0 17 5 25 10 8 5 11 10 5 10 -5
0 -17 -5 -25 -10z"/>
<path d="M12854 4409 c-4 -7 -3 -9 4 -5 5 3 13 0 15 -6 4 -9 6 -10 6 -1 1 17
-16 25 -25 12z"/>
<path d="M13110 4412 c0 -4 9 -13 20 -20 23 -14 26 -7 6 14 -16 15 -26 18 -26
6z"/>
<path d="M12830 4401 c0 -10 19 -25 25 -20 1 2 -3 10 -11 17 -8 7 -14 8 -14 3z"/>
<path d="M13075 4400 c-3 -6 1 -7 9 -4 18 7 21 14 7 14 -6 0 -13 -4 -16 -10z"/>
<path d="M13174 4388 l-19 -23 23 19 c21 18 27 26 19 26 -2 0 -12 -10 -23 -22z"/>
<path d="M13094 4365 c-1 -14 2 -22 7 -19 11 6 12 44 2 44 -5 0 -9 -11 -9 -25z"/>
<path d="M12692 4366 c-24 -13 -24 -13 7 -13 18 0 27 4 20 7 -8 6 -7 9 2 13 8
3 10 6 4 6 -5 0 -21 -6 -33 -13z"/>
<path d="M12745 4364 c4 -11 7 -27 7 -36 -1 -26 12 -30 44 -13 16 8 23 15 16
15 -7 0 -22 -5 -33 -10 -13 -8 -19 -7 -19 0 0 6 7 13 15 16 8 4 15 11 15 16 0
6 -7 5 -16 -3 -13 -11 -15 -10 -12 6 1 10 -3 20 -11 23 -11 3 -12 0 -6 -14z"/>
<path d="M13120 4371 c0 -10 19 -25 25 -20 1 2 -3 10 -11 17 -8 7 -14 8 -14 3z"/>
<path d="M12818 4340 c21 -20 27 -34 22 -55 -1 -5 2 -7 6 -2 4 4 8 16 9 27 1
11 -1 18 -3 15 -3 -3 -11 4 -19 15 -8 11 -19 20 -25 20 -7 0 -2 -9 10 -20z"/>
<path d="M12633 4326 c-3 -5 -1 -6 4 -3 10 7 28 -20 25 -35 -1 -5 3 -8 8 -8
13 0 13 6 0 31 -8 13 -7 19 0 19 6 0 13 -7 16 -15 4 -8 11 -15 16 -15 6 0 5 7
-2 15 -12 14 -10 15 13 11 15 -3 27 -1 27 3 0 11 -100 9 -107 -3z"/>
<path d="M12610 4310 c0 -5 4 -10 10 -10 5 0 7 -6 4 -14 -3 -8 -1 -17 5 -21 7
-4 8 0 4 11 -4 12 -3 15 5 10 7 -4 12 -3 12 1 0 5 -9 14 -20 21 -12 7 -20 8
-20 2z"/>
<path d="M13412 4301 c-3 -9 -10 -19 -15 -23 -6 -3 2 -5 16 -5 16 1 22 6 16
12 -14 14 -11 29 5 16 10 -8 16 -8 24 2 9 10 6 13 -15 13 -14 0 -28 -7 -31
-15z"/>
<path d="M12730 4300 c8 -5 11 -10 5 -10 -5 0 -2 -5 7 -11 12 -7 24 -6 38 1
27 15 25 -4 -2 -24 -14 -9 -17 -15 -8 -13 19 3 37 27 37 49 0 15 -2 15 -25 0
-22 -14 -25 -14 -34 1 -5 9 -14 17 -21 17 -7 0 -6 -4 3 -10z"/>
<path d="M12821 4294 c0 -11 3 -14 6 -6 3 7 2 16 -1 19 -3 4 -6 -2 -5 -13z"/>
<path d="M12572 4286 c-23 -12 -23 -13 10 -13 18 0 27 2 20 5 -6 2 -10 8 -6
13 7 12 4 11 -24 -5z"/>
<path d="M13477 4290 c9 -10 10 -17 1 -27 -9 -11 -7 -17 5 -29 9 -8 12 -9 7
-2 -16 20 -11 31 8 17 15 -12 16 -12 5 2 -7 9 -11 18 -8 21 3 3 -3 11 -12 19
-15 11 -16 11 -6 -1z"/>
<path d="M12693 4270 c-18 -20 -39 -28 -28 -10 3 6 1 10 -4 10 -16 0 -13 -20
4 -26 8 -4 13 -9 11 -13 -3 -4 5 -8 17 -8 20 -2 20 -1 5 11 -16 12 -16 14 5
34 12 12 18 22 14 22 -4 0 -15 -9 -24 -20z"/>
<path d="M13357 4273 c3 -7 6 -13 8 -13 2 0 5 6 8 13 3 8 -1 14 -8 14 -7 0
-11 -6 -8 -14z"/>
<path d="M13446 4265 c-3 -9 -12 -12 -23 -9 -14 4 -14 3 2 -7 30 -19 45 -36
38 -43 -4 -3 -1 -6 5 -6 16 0 15 10 -4 32 -14 14 -14 20 -4 33 7 8 8 15 2 15
-5 0 -12 -7 -16 -15z"/>
<path d="M12715 4260 c-3 -6 -1 -18 5 -27 9 -15 10 -14 5 7 -6 24 -5 24 9 6
13 -16 16 -17 16 -4 0 18 -27 32 -35 18z"/>
<path d="M13332 4250 c-18 -29 -15 -38 4 -12 9 13 14 25 12 27 -2 2 -9 -5 -16
-15z"/>
<path d="M12570 4249 c0 -6 4 -8 9 -4 6 3 15 -3 21 -12 11 -17 11 -17 6 0 -6
18 9 24 17 7 3 -6 4 -5 3 2 -3 15 -56 21 -56 7z"/>
<path d="M13371 4243 c-6 -10 -11 -14 -11 -8 0 5 -7 -1 -16 -13 -24 -35 -13
-33 24 5 19 18 29 33 23 33 -5 0 -15 -8 -20 -17z"/>
<path d="M12646 4227 c3 -10 9 -15 12 -12 3 3 0 11 -7 18 -10 9 -11 8 -5 -6z"/>
<path d="M13390 4236 c0 -2 7 -6 15 -10 8 -3 15 -1 15 4 0 6 -7 10 -15 10 -8
0 -15 -2 -15 -4z"/>
<path d="M8158 4200 c-14 -11 -31 -20 -36 -20 -6 0 -12 -4 -14 -8 -1 -5 -43
-35 -93 -67 -49 -32 -153 -100 -230 -150 -77 -51 -151 -98 -165 -105 -13 -7
-30 -18 -37 -24 -6 -6 -82 -54 -167 -106 -85 -52 -158 -103 -161 -113 -8 -22
11 -47 36 -47 11 0 55 23 99 50 44 28 82 50 85 50 3 0 11 5 18 10 20 17 85 58
129 83 41 22 53 29 98 58 14 9 59 38 100 65 41 26 140 91 220 143 80 53 152
99 160 102 28 12 52 47 48 71 -4 32 -54 37 -90 8z"/>
<path d="M13380 4209 c0 -5 5 -7 10 -4 6 3 10 8 10 11 0 2 -4 4 -10 4 -5 0
-10 -5 -10 -11z"/>
<path d="M13357 4203 c-4 -3 -7 -11 -7 -17 0 -6 5 -5 12 2 6 6 9 14 7 17 -3 3
-9 2 -12 -2z"/>
<path d="M13388 4187 c-24 -20 -25 -23 -9 -23 11 0 17 5 14 10 -4 5 0 7 8 4
10 -4 15 1 15 13 0 11 0 19 -1 19 0 -1 -12 -11 -27 -23z"/>
<path d="M13430 4190 c0 -5 5 -10 10 -10 6 0 10 5 10 10 0 6 -4 10 -10 10 -5
0 -10 -4 -10 -10z"/>
<path d="M12031 3947 c-6 -8 -7 -17 -3 -21 7 -7 8 -11 11 -37 0 -5 5 -8 10 -4
5 3 12 1 16 -4 8 -15 35 -2 35 17 0 14 -1 14 -12 -1 -10 -13 -16 -14 -28 -4
-16 13 -25 37 -14 37 4 0 13 -8 21 -17 13 -16 13 -16 3 5 -6 12 -15 22 -21 22
-6 0 -7 5 -4 10 9 15 -1 12 -14 -3z"/>
<path d="M12600 3932 c-14 -14 -19 -22 -12 -18 20 12 62 14 68 5 3 -5 13 -9
22 -8 12 0 10 3 -7 10 -19 8 -21 12 -11 24 7 9 8 15 2 15 -5 0 -12 -7 -16 -15
-3 -8 -10 -15 -15 -15 -6 0 -8 7 -5 15 8 20 4 18 -26 -13z"/>
<path d="M12676 3943 c-6 -14 -5 -15 5 -6 7 7 10 15 7 18 -3 3 -9 -2 -12 -12z"/>
<path d="M12706 3945 c-7 -20 4 -46 17 -38 6 4 8 0 5 -8 -3 -8 0 -26 8 -40 10
-17 13 -19 14 -7 0 9 -4 19 -10 23 -5 3 -7 12 -4 20 4 8 -1 18 -10 21 -11 4
-14 13 -11 25 7 22 0 26 -9 4z"/>
<path d="M12735 3950 c-8 -14 4 -32 18 -27 7 2 21 0 32 -5 19 -9 19 -8 2 6
-11 8 -25 12 -33 9 -10 -4 -12 0 -8 11 7 18 -1 22 -11 6z"/>
<path d="M12790 3940 c8 -5 20 -10 25 -10 6 0 3 5 -5 10 -8 5 -19 10 -25 10
-5 0 -3 -5 5 -10z"/>
<path d="M13212 3938 c3 -7 14 -14 26 -14 26 -1 54 -23 46 -35 -3 -5 0 -9 6
-9 7 0 9 7 6 16 -4 9 -2 22 4 29 8 10 6 15 -10 20 -12 4 -24 4 -27 1 -4 -3 1
-6 10 -6 10 0 17 -5 17 -11 0 -7 -7 -8 -17 -4 -10 4 -26 7 -36 7 -9 0 -15 3
-12 9 4 5 1 9 -5 9 -7 0 -10 -6 -8 -12z"/>
<path d="M12170 3930 c0 -5 5 -10 10 -10 6 0 10 5 10 10 0 6 -4 10 -10 10 -5
0 -10 -4 -10 -10z"/>
<path d="M13182 3924 c-16 -18 -15 -29 1 -15 14 11 27 5 27 -11 0 -5 -5 -6
-10 -3 -6 4 -10 3 -9 -2 3 -13 -12 -43 -22 -43 -11 0 -8 22 4 31 5 3 2 9 -5
12 -11 4 -14 -4 -13 -28 0 -19 4 -36 8 -39 4 -3 5 -4 3 -1 -2 3 6 17 18 30
l21 24 22 -21 c13 -12 23 -17 23 -12 0 5 -9 16 -19 24 -11 7 -18 17 -15 22 3
4 -1 16 -8 27 -11 15 -15 16 -26 5z"/>
<path d="M13320 3925 c-6 -8 -9 -19 -5 -24 8 -14 -23 -61 -40 -61 -8 0 -27
-19 -43 -42 -15 -24 -35 -42 -44 -40 -8 1 -15 -5 -15 -13 0 -13 3 -13 25 1 22
15 26 15 41 -1 15 -16 15 -17 -4 -11 -11 3 -27 1 -35 -5 -12 -8 -10 -9 7 -4
19 5 22 3 16 -12 -7 -17 -6 -17 11 0 9 9 22 17 28 17 6 0 0 8 -12 18 -19 15
-20 21 -10 42 14 31 67 64 74 47 3 -8 5 -8 5 1 1 7 6 10 11 7 16 -10 -8 -35
-28 -29 -9 2 -7 -1 6 -7 12 -7 22 -15 22 -19 0 -5 8 -11 17 -14 15 -6 15 -4
-1 13 -15 17 -16 24 -7 35 13 16 45 11 35 -5 -3 -5 -10 -7 -15 -4 -15 10 -10
-12 6 -25 13 -11 14 -10 9 5 -5 12 -4 16 4 11 6 -3 13 -2 16 3 4 5 2 12 -4 16
-6 4 -8 11 -5 16 3 5 -2 6 -11 2 -13 -5 -15 -3 -9 8 7 12 6 12 -7 1 -11 -9
-18 -10 -23 -2 -3 6 -11 8 -16 5 -5 -4 -9 -2 -9 3 0 16 13 22 27 11 8 -8 13
-8 13 -1 0 6 -6 13 -12 16 -10 5 -10 7 0 12 6 3 12 10 12 16 0 6 -6 6 -15 -2
-18 -15 -20 1 -3 18 7 7 9 12 6 12 -3 0 -11 -7 -18 -15z"/>
<path d="M12807 3906 c-3 -9 4 -21 19 -30 13 -9 24 -22 24 -29 0 -23 -39 -57
-58 -51 -14 5 -15 4 -2 -5 23 -16 28 -14 56 29 15 22 31 37 37 33 6 -3 7 -1 3
6 -4 6 -12 9 -17 5 -13 -8 -40 16 -33 28 4 6 10 5 15 -3 4 -7 11 -10 16 -6 4
5 1 12 -7 17 -9 6 -19 5 -24 0 -16 -16 -30 -11 -16 5 7 9 8 15 2 15 -5 0 -12
-6 -15 -14z"/>
<path d="M12115 3900 c3 -5 8 -10 11 -10 2 0 4 5 4 10 0 6 -5 10 -11 10 -5 0
-7 -4 -4 -10z"/>
<path d="M12610 3903 c0 -5 5 -15 10 -23 7 -12 9 -10 7 8 -1 19 -17 33 -17 15z"/>
<path d="M12641 3894 c0 -11 3 -14 6 -6 3 7 2 16 -1 19 -3 4 -6 -2 -5 -13z"/>
<path d="M12758 3903 c6 -2 12 -9 12 -14 0 -6 -4 -7 -10 -4 -6 3 -7 -1 -4 -10
6 -14 8 -14 19 2 13 18 4 34 -20 32 -5 0 -4 -3 3 -6z"/>
<path d="M13237 3890 c3 -11 7 -20 9 -20 2 0 4 9 4 20 0 11 -4 20 -9 20 -5 0
-7 -9 -4 -20z"/>
<path d="M13361 3899 c-1 -19 26 -45 36 -35 3 3 1 6 -6 6 -6 0 -16 10 -21 23
-6 15 -9 17 -9 6z"/>
<path d="M12590 3885 c0 -8 4 -15 10 -15 5 0 7 7 4 15 -4 8 -8 15 -10 15 -2 0
-4 -7 -4 -15z"/>
<path d="M12663 3889 c1 -4 -13 -21 -31 -38 -18 -18 -30 -36 -27 -41 3 -5 -5
-16 -17 -26 -19 -14 -20 -15 -3 -10 14 5 27 -2 53 -31 18 -21 31 -32 27 -25
-8 15 0 15 28 1 21 -10 21 -10 2 6 -11 8 -25 13 -31 11 -15 -6 -53 46 -50 67
1 9 21 34 44 56 31 30 37 39 22 38 -10 -1 -18 -4 -17 -8z"/>
<path d="M12705 3860 c18 -20 8 -29 -11 -10 -6 6 -15 6 -24 -1 -13 -9 -13 -10
0 -8 8 1 23 -1 33 -6 10 -4 20 -5 23 -2 7 7 -18 47 -30 47 -5 0 -1 -9 9 -20z"/>
<path d="M12786 3864 c-4 -9 -4 -19 -1 -22 3 -3 5 0 5 7 0 7 5 9 10 6 6 -3 10
-2 10 4 0 18 -18 21 -24 5z"/>
<path d="M13260 3870 c0 -6 7 -10 15 -10 8 0 15 2 15 4 0 2 -7 6 -15 10 -8 3
-15 1 -15 -4z"/>
<path d="M12560 3863 c8 -3 20 -9 25 -14 6 -4 17 -3 25 3 12 8 12 9 -2 4 -10
-3 -20 -1 -23 4 -4 6 -14 10 -23 9 -14 0 -14 -2 -2 -6z"/>
<path d="M12821 3844 c0 -11 3 -14 6 -6 3 7 2 16 -1 19 -3 4 -6 -2 -5 -13z"/>
<path d="M13182 3820 c-13 -22 -27 -38 -32 -35 -6 3 -7 -1 -3 -10 5 -14 10
-11 25 14 11 17 22 31 24 31 8 0 -1 -35 -11 -43 -6 -5 -4 -7 5 -4 8 2 14 10
13 16 -2 6 2 11 8 11 5 0 7 5 4 10 -3 6 -1 10 4 10 6 0 11 5 11 11 0 8 -6 7
-16 -2 -15 -12 -16 -11 -10 9 11 32 4 27 -22 -18z"/>
<path d="M12566 3835 c4 -8 11 -15 16 -15 6 0 5 6 -2 15 -7 8 -14 15 -16 15
-2 0 -1 -7 2 -15z"/>
<path d="M12752 3834 c-7 -8 -8 -14 -3 -14 10 0 25 19 20 25 -2 1 -10 -3 -17
-11z"/>
<path d="M12758 3806 c-43 -33 -46 -34 -68 -19 -13 9 -20 12 -17 6 4 -6 0 -13
-8 -17 -8 -3 -15 -10 -15 -16 0 -6 7 -4 16 4 11 11 21 13 32 7 11 -6 24 -4 41
8 22 14 24 14 19 1 -3 -9 0 -24 8 -35 8 -10 14 -14 14 -8 0 7 -4 14 -8 17 -10
6 -9 36 2 54 4 7 17 10 29 7 12 -2 16 -2 9 1 -6 3 -10 10 -6 15 9 16 -2 10
-48 -25z"/>
<path d="M11770 3820 c8 -5 11 -10 6 -10 -4 0 2 -8 14 -18 15 -13 20 -23 15
-32 -7 -11 -10 -9 -16 6 -7 17 -8 17 -8 1 -1 -10 6 -20 14 -23 13 -5 13 -9 3
-23 -12 -14 -11 -14 4 -2 10 7 15 17 12 23 -3 5 0 15 6 23 10 11 10 15 1 15
-7 0 -9 5 -5 12 4 7 3 8 -4 4 -6 -3 -16 3 -22 14 -6 11 -16 20 -23 20 -7 0 -6
-4 3 -10z"/>
<path d="M12650 3817 c0 -9 -4 -17 -10 -17 -5 0 -10 -4 -10 -10 0 -5 4 -10 9
-10 12 0 25 39 17 47 -3 4 -6 -1 -6 -10z"/>
<path d="M12689 3810 c23 -20 41 -19 41 3 0 7 -4 6 -10 -3 -7 -11 -10 -11 -10
-2 0 7 -4 10 -10 7 -5 -3 -10 -1 -10 4 0 6 -6 11 -12 11 -7 -1 -2 -9 11 -20z"/>
<path d="M11750 3805 c0 -5 5 -17 10 -25 5 -8 10 -10 10 -5 0 6 -5 17 -10 25
-5 8 -10 11 -10 5z"/>
<path d="M12566 3798 c3 -5 10 -6 15 -3 13 9 11 12 -6 12 -8 0 -12 -4 -9 -9z"/>
<path d="M13268 3803 c6 -2 10 -9 7 -14 -4 -5 1 -6 10 -2 13 5 14 7 3 14 -7 5
-17 8 -23 8 -5 0 -4 -3 3 -6z"/>
<path d="M12839 3783 c-13 -17 -13 -17 6 -3 11 8 22 16 24 17 2 2 0 3 -6 3 -6
0 -17 -8 -24 -17z"/>
<path d="M11715 3781 c-3 -5 0 -13 6 -17 8 -5 9 -3 4 6 -6 10 -4 12 9 7 10 -4
15 -3 11 3 -8 13 -22 13 -30 1z"/>
<path d="M13251 3774 c0 -11 3 -14 6 -6 3 7 2 16 -1 19 -3 4 -6 -2 -5 -13z"/>
<path d="M13313 3766 c0 -33 11 -41 28 -18 13 16 13 16 -5 2 -18 -13 -19 -13
-14 1 3 9 3 22 -2 28 -5 9 -7 4 -7 -13z"/>
<path d="M11446 3771 c-4 -6 -14 -7 -24 -4 -18 7 -17 5 12 -17 11 -8 17 -10
13 -3 -4 6 -1 13 5 16 7 2 10 7 7 11 -4 4 -10 3 -13 -3z"/>
<path d="M12186 3772 c-3 -4 -1 -14 4 -22 4 -7 6 -20 3 -29 -4 -13 -3 -13 5
-2 6 8 7 21 4 30 -5 14 -3 14 11 2 9 -7 17 -9 17 -5 0 13 -38 35 -44 26z"/>
<path d="M12780 3772 c0 -6 9 -12 20 -15 11 -3 20 -3 20 -1 0 2 -9 8 -20 14
-11 6 -20 7 -20 2z"/>
<path d="M13290 3769 c0 -5 -4 -7 -10 -4 -19 12 -10 -12 12 -31 15 -12 18 -13
10 -3 -7 9 -10 24 -6 33 3 9 3 16 0 16 -3 0 -6 -5 -6 -11z"/>
<path d="M11466 3744 c-9 -22 -8 -26 6 -22 13 5 20 38 8 38 -4 0 -11 -7 -14
-16z"/>
<path d="M11740 3750 c0 -5 7 -7 15 -4 8 4 15 8 15 10 0 2 -7 4 -15 4 -8 0
-15 -4 -15 -10z"/>
<path d="M12150 3749 c0 -5 -4 -7 -10 -4 -6 3 -7 -1 -3 -10 5 -13 7 -14 14 -3
7 11 11 10 19 -2 11 -17 13 -10 4 14 -7 18 -24 22 -24 5z"/>
<path d="M12252 3747 c-7 -9 -8 -17 -1 -27 9 -13 10 -13 6 0 -2 8 5 20 17 27
16 10 17 12 5 13 -9 0 -21 -6 -27 -13z"/>
<path d="M12588 3753 c7 -3 16 -2 19 1 4 3 -2 6 -13 5 -11 0 -14 -3 -6 -6z"/>
<path d="M12671 3756 c2 -2 15 -9 29 -16 23 -12 24 -12 11 3 -7 10 -20 17 -29
17 -8 0 -13 -2 -11 -4z"/>
<path d="M12730 3751 c0 -5 7 -12 16 -15 14 -5 15 -4 4 9 -14 17 -20 19 -20 6z"/>
<path d="M11275 3740 c3 -5 8 -10 11 -10 2 0 4 5 4 10 0 6 -5 10 -11 10 -5 0
-7 -4 -4 -10z"/>
<path d="M11410 3735 c14 -8 19 -14 13 -15 -7 0 -13 -5 -13 -10 0 -6 8 -5 20
2 19 12 19 13 -3 25 -12 7 -26 12 -32 12 -5 0 1 -6 15 -14z"/>
<path d="M11720 3735 c0 -8 4 -15 10 -15 5 0 7 7 4 15 -4 8 -8 15 -10 15 -2 0
-4 -7 -4 -15z"/>
<path d="M11205 3729 c-4 -6 -5 -12 -2 -15 2 -3 7 2 10 11 7 17 1 20 -8 4z"/>
<path d="M11300 3728 c0 -3 9 -6 20 -5 11 1 20 5 20 9 0 3 -9 6 -20 5 -11 -1
-20 -5 -20 -9z"/>
<path d="M11767 3723 c4 -11 3 -14 -5 -9 -7 4 -12 2 -12 -4 0 -7 6 -10 13 -8
15 6 22 38 8 38 -6 0 -7 -7 -4 -17z"/>
<path d="M12276 3724 c-3 -8 -1 -14 4 -14 6 0 10 5 10 11 0 5 4 8 9 4 5 -3 12
-2 15 3 2 4 -4 8 -14 9 -10 1 -21 -5 -24 -13z"/>
<path d="M12600 3736 c0 -2 7 -7 16 -10 8 -3 12 -2 9 4 -6 10 -25 14 -25 6z"/>
<path d="M11356 3713 c2 -7 -6 -18 -18 -24 -18 -10 -24 -8 -39 12 l-18 24 -21
-23 c-11 -12 -16 -22 -10 -22 6 0 13 7 16 15 9 21 19 19 34 -10 l13 -24 43 30
c45 31 59 48 25 29 -11 -5 -21 -7 -24 -2 -2 4 -2 1 -1 -5z"/>
<path d="M12105 3703 l-17 -28 23 22 c12 12 20 25 17 28 -3 3 -13 -7 -23 -22z"/>
<path d="M12215 3720 c-3 -5 -1 -10 4 -10 6 0 11 5 11 10 0 6 -2 10 -4 10 -3
0 -8 -4 -11 -10z"/>
<path d="M11135 3710 c-3 -5 -1 -10 4 -10 6 0 11 5 11 10 0 6 -2 10 -4 10 -3
0 -8 -4 -11 -10z"/>
<path d="M11220 3710 c0 -6 7 -10 15 -10 8 0 15 2 15 4 0 2 -7 6 -15 10 -8 3
-15 1 -15 -4z"/>
<path d="M13268 3713 c7 -3 16 -2 19 1 4 3 -2 6 -13 5 -11 0 -14 -3 -6 -6z"/>
<path d="M11318 3703 c7 -3 16 -2 19 1 4 3 -2 6 -13 5 -11 0 -14 -3 -6 -6z"/>
<path d="M11450 3693 c0 -15 -2 -16 -10 -3 -6 9 -10 10 -10 3 0 -22 19 -24 30
-3 7 13 7 20 0 20 -5 0 -10 -8 -10 -17z"/>
<path d="M12120 3685 c-19 -14 -29 -25 -24 -25 6 0 11 -7 12 -15 5 -44 5 -43
24 -32 10 7 18 15 18 19 0 16 17 7 28 -14 8 -17 11 -18 11 -7 1 9 -6 22 -14
29 -13 10 -19 9 -37 -6 -18 -16 -20 -16 -15 -3 3 9 1 21 -5 27 -6 6 -6 12 1
16 6 4 11 2 11 -3 0 -6 5 -11 11 -11 8 0 8 5 -1 15 -8 9 -8 15 -2 15 6 0 17
-7 26 -15 8 -8 18 -15 23 -15 4 1 -3 10 -16 20 -15 13 -18 20 -9 20 8 0 18 -4
24 -10 6 -6 15 -5 24 1 13 9 12 10 -2 5 -10 -3 -20 -1 -23 4 -10 16 -29 12
-65 -15z"/>
<path d="M12296 3702 c-3 -5 -18 -8 -33 -6 -31 3 -75 -39 -66 -63 5 -12 7 -12
14 -2 4 7 6 16 4 20 -3 3 4 14 14 23 17 16 19 16 26 -1 10 -23 15 -43 18 -67
2 -21 27 -35 27 -16 0 6 -4 8 -10 5 -5 -3 -10 -2 -10 2 0 11 37 43 50 43 6 0
10 5 10 11 0 5 6 7 13 3 9 -5 9 -4 0 6 -6 7 -10 18 -9 24 2 6 1 8 -1 4 -7 -12
-23 -9 -20 3 3 14 -19 23 -27 11z m19 -11 c-3 -6 2 -14 10 -18 13 -8 10 -13
-15 -31 -16 -13 -30 -18 -30 -12 0 5 1 11 2 13 1 1 -4 12 -11 25 -8 15 -8 22
-1 22 6 0 13 -7 16 -15 4 -8 11 -15 16 -15 7 0 6 5 -1 13 -11 14 -5 27 11 27
5 0 7 -4 3 -9z"/>
<path d="M11150 3690 c-13 -8 -12 -10 3 -10 9 0 17 5 17 10 0 12 -1 12 -20 0z"/>
<path d="M11395 3691 c6 -11 4 -13 -8 -8 -24 9 -21 2 7 -17 32 -20 42 -5 14
20 -12 11 -18 13 -13 5z"/>
<path d="M11192 3669 c10 -5 24 -19 31 -30 13 -17 15 -18 21 -4 3 9 2 13 -4
10 -6 -3 -10 -2 -10 4 0 5 6 12 13 15 6 3 2 3 -10 1 -12 -3 -24 -1 -28 5 -3 5
-12 10 -18 10 -7 0 -4 -5 5 -11z"/>
<path d="M11269 3670 c-1 -5 -2 -14 -3 -19 0 -5 -4 -13 -8 -17 -12 -11 -9 -21
5 -21 9 0 13 10 11 24 -2 17 2 23 11 19 9 -3 12 0 8 10 -6 16 -22 19 -24 4z"/>
<path d="M11344 3662 c-6 -4 -14 -16 -17 -27 l-7 -20 16 20 c8 11 20 19 25 18
5 -2 9 2 9 7 0 12 -11 13 -26 2z"/>
<path d="M11176 3644 c-3 -9 -2 -12 5 -9 5 4 18 1 27 -6 13 -11 12 -8 -2 9
-23 26 -22 26 -30 6z"/>
<path d="M11290 3631 c0 -5 5 -13 10 -16 6 -3 10 -2 10 4 0 5 -4 13 -10 16 -5
3 -10 2 -10 -4z"/>
<path d="M11350 3630 c0 -5 5 -10 10 -10 6 0 10 5 10 10 0 6 -4 10 -10 10 -5
0 -10 -4 -10 -10z"/>
<path d="M12226 3624 c-9 -24 -7 -31 4 -14 9 13 11 13 20 0 11 -17 13 -10 4
14 -3 9 -10 16 -14 16 -4 0 -11 -7 -14 -16z"/>
<path d="M12340 3620 c-6 -11 -15 -18 -21 -15 -5 4 -9 1 -9 -4 0 -14 17 -14
26 0 5 8 9 8 14 -1 5 -8 9 -7 13 5 4 9 3 13 -3 10 -6 -3 -10 -2 -10 4 0 5 6
12 13 14 9 4 9 6 0 6 -7 1 -17 -8 -23 -19z"/>
<path d="M12150 3600 c0 -5 5 -10 10 -10 6 0 10 5 10 10 0 6 -4 10 -10 10 -5
0 -10 -4 -10 -10z"/>
<path d="M12192 3594 c-7 -8 -8 -14 -3 -14 10 0 25 19 20 25 -2 1 -10 -3 -17
-11z"/>
<path d="M12209 3573 c-11 -15 -11 -16 1 -5 15 13 54 17 46 4 -2 -4 4 -14 15
-20 19 -12 19 -12 3 13 -19 29 -46 32 -65 8z"/>
<path d="M12606 3575 c4 -8 11 -15 16 -15 6 0 5 6 -2 15 -7 8 -14 15 -16 15
-2 0 -1 -7 2 -15z"/>
<path d="M12160 3570 c8 -5 20 -10 25 -10 6 0 3 5 -5 10 -8 5 -19 10 -25 10
-5 0 -3 -5 5 -10z"/>
<path d="M12302 3571 c-11 -7 -11 -9 0 -14 9 -3 15 1 15 9 0 8 -1 14 -1 14 -1
0 -7 -4 -14 -9z"/>
<path d="M12330 3569 c0 -5 5 -7 10 -4 6 3 10 8 10 11 0 2 -4 4 -10 4 -5 0
-10 -5 -10 -11z"/>
<path d="M12570 3572 c0 -4 9 -15 20 -25 16 -13 18 -22 11 -35 -6 -12 -6 -23
1 -33 8 -11 9 -11 5 3 -3 9 4 29 16 45 12 15 15 23 7 17 -11 -8 -19 -7 -32 7
-9 9 -14 20 -10 23 3 3 0 6 -6 6 -7 0 -12 -3 -12 -8z"/>
<path d="M12220 3555 c-7 -9 -8 -15 -2 -15 5 0 12 7 16 15 3 8 4 15 2 15 -2 0
-9 -7 -16 -15z"/>
<path d="M12512 3532 c-31 -32 -23 -37 11 -7 16 13 24 25 20 27 -4 2 -18 -7
-31 -20z"/>
<path d="M12539 3519 c-26 -27 -27 -39 -6 -39 6 0 8 3 4 6 -3 3 3 15 14 27 10
11 19 24 19 29 0 11 -1 10 -31 -23z"/>
<path d="M12576 3525 c-3 -8 -1 -15 4 -15 6 0 10 7 10 15 0 8 -2 15 -4 15 -2
0 -6 -7 -10 -15z"/>
<path d="M12635 3520 c-3 -6 1 -7 9 -4 18 7 21 14 7 14 -6 0 -13 -4 -16 -10z"/>
<path d="M12643 3503 c-13 -2 -23 -8 -23 -13 0 -10 38 -1 46 11 3 5 4 8 2 8
-2 -1 -13 -4 -25 -6z"/>
<path d="M12554 3488 c-4 -7 -3 -8 4 -4 7 4 12 2 12 -3 0 -6 4 -11 10 -11 5 0
7 7 4 15 -7 18 -20 19 -30 3z"/>
<path d="M12497 3465 c15 -13 23 -25 16 -25 -6 0 -15 5 -18 10 -8 13 -25 13
-25 -1 0 -5 5 -7 10 -4 6 3 13 0 16 -8 2 -7 11 -14 19 -14 8 0 12 4 10 8 -3 4
2 9 10 13 17 6 20 26 4 26 -5 0 -7 -4 -4 -10 11 -18 -10 -10 -28 10 -9 11 -22
20 -27 20 -6 0 2 -11 17 -25z"/>
<path d="M12630 3467 c-14 -8 -32 -12 -40 -9 -13 3 -13 2 0 -7 9 -6 18 -7 24
-1 6 6 18 10 28 10 10 0 18 5 18 10 0 13 0 13 -30 -3z"/>
<path d="M12551 3438 c-7 -11 -10 -23 -6 -26 10 -10 35 -11 29 -1 -3 5 -10 7
-15 4 -5 -4 -9 -2 -9 3 0 19 14 21 32 5 23 -21 23 -12 0 15 l-18 21 -13 -21z"/>
<path d="M12624 3435 c-10 -8 -14 -15 -8 -15 6 0 17 7 24 15 16 19 9 19 -16 0z"/>
<path d="M10957 3433 c-3 -5 -1 -17 4 -28 6 -17 7 -16 6 8 -1 28 -3 32 -10 20z"/>
<path d="M10992 3414 c10 -10 20 -16 22 -13 3 3 -5 11 -17 18 -21 13 -21 12
-5 -5z"/>
<path d="M11010 3426 c0 -2 7 -7 16 -10 8 -3 12 -2 9 4 -6 10 -25 14 -25 6z"/>
<path d="M10921 3406 c-6 -8 -10 -20 -9 -27 2 -8 -2 -13 -8 -12 -6 1 -11 -5
-11 -13 0 -12 3 -11 18 2 10 9 15 23 12 32 -4 10 6 6 30 -12 40 -31 60 -29 77
6 l11 23 -17 -22 c-9 -13 -22 -23 -28 -23 -16 0 -67 46 -59 54 3 3 4 6 1 6 -3
0 -11 -6 -17 -14z"/>
<path d="M11806 3411 c-3 -5 1 -14 9 -21 10 -9 15 -9 15 -1 0 6 -5 11 -11 11
-5 0 -7 5 -4 10 3 6 4 10 1 10 -3 0 -7 -4 -10 -9z"/>
<path d="M11780 3403 c0 -7 4 -14 10 -18 5 -3 7 -12 3 -20 -3 -8 -3 -15 0 -15
13 0 13 28 1 45 -8 10 -14 14 -14 8z"/>
<path d="M11845 3399 c-4 -6 -5 -12 -2 -15 2 -3 7 2 10 11 7 17 1 20 -8 4z"/>
<path d="M11867 3386 c-15 -22 -14 -24 9 -36 13 -8 24 -16 24 -20 0 -4 -11
-12 -24 -20 -23 -12 -24 -14 -9 -36 21 -33 4 -30 -24 4 -12 15 -22 21 -23 15
0 -7 5 -13 11 -13 5 0 8 -4 5 -9 -6 -9 18 -24 39 -26 6 0 16 -4 24 -9 9 -6 12
-5 7 2 -3 5 -3 12 1 15 5 2 2 2 -4 1 -7 -2 -18 6 -24 18 -10 18 -8 24 12 40
l24 18 -24 18 c-20 16 -22 22 -12 40 16 29 7 28 -12 -2z"/>
<path d="M10980 3390 c0 -6 7 -10 15 -10 8 0 15 2 15 4 0 2 -7 6 -15 10 -8 3
-15 1 -15 -4z"/>
<path d="M11727 3386 c-10 -8 -14 -16 -10 -19 5 -3 14 3 21 14 14 22 13 23
-11 5z"/>
<path d="M11903 3393 c-7 -3 -13 -12 -13 -21 1 -16 1 -16 11 0 5 10 16 15 24
12 8 -4 15 -4 15 -1 0 8 -24 14 -37 10z"/>
<path d="M11750 3376 c0 -2 7 -6 15 -10 8 -3 15 -1 15 4 0 6 -7 10 -15 10 -8
0 -15 -2 -15 -4z"/>
<path d="M11793 3330 l-36 -39 -28 20 c-19 13 -26 26 -23 37 5 14 4 14 -4 2
-8 -10 -8 -18 0 -27 12 -15 -8 -47 -23 -37 -5 3 -6 -2 -3 -10 5 -13 9 -12 24
7 16 18 22 20 38 10 20 -12 41 1 86 55 33 38 7 24 -31 -18z"/>
<path d="M11910 3359 c0 -5 5 -7 10 -4 6 3 10 8 10 11 0 2 -4 4 -10 4 -5 0
-10 -5 -10 -11z"/>
<path d="M11937 3352 c-15 -16 -15 -19 -2 -19 8 0 13 3 10 5 -3 3 0 11 6 19
17 20 5 16 -14 -5z"/>
<path d="M10930 3352 c0 -5 -10 -14 -22 -21 -15 -8 -16 -10 -4 -6 10 3 24 1
31 -5 18 -15 55 -21 55 -9 0 6 -6 9 -12 6 -7 -2 -21 0 -31 5 -15 7 -16 12 -6
24 8 10 8 14 0 14 -6 0 -11 -4 -11 -8z"/>
<path d="M11030 3349 c0 -5 5 -7 10 -4 6 3 10 8 10 11 0 2 -4 4 -10 4 -5 0
-10 -5 -10 -11z"/>
<path d="M11750 3350 c8 -5 20 -10 25 -10 6 0 3 5 -5 10 -8 5 -19 10 -25 10
-5 0 -3 -5 5 -10z"/>
<path d="M10955 3340 c-3 -5 -1 -10 4 -10 6 0 11 5 11 10 0 6 -2 10 -4 10 -3
0 -8 -4 -11 -10z"/>
<path d="M11722 3342 c2 -8 7 -13 12 -12 5 1 12 -4 16 -10 5 -9 9 -9 14 -1 6
10 0 13 -20 10 -4 0 -11 5 -16 13 -8 11 -9 11 -6 0z"/>
<path d="M11834 3338 c-4 -7 -3 -8 4 -4 7 4 12 2 12 -3 0 -6 -7 -11 -17 -11
-9 0 -14 -3 -10 -6 7 -8 47 5 47 16 0 13 -29 20 -36 8z"/>
<path d="M11000 3330 c0 -5 5 -10 10 -10 6 0 10 5 10 10 0 6 -4 10 -10 10 -5
0 -10 -4 -10 -10z"/>
<path d="M12240 3320 c-8 -5 -10 -10 -5 -10 6 0 17 5 25 10 8 5 11 10 5 10 -5
0 -17 -5 -25 -10z"/>
<path d="M11940 3305 c10 -12 10 -18 -1 -32 -12 -17 -12 -17 4 -2 18 16 14 49
-5 49 -6 0 -5 -6 2 -15z"/>
<path d="M10915 3300 c3 -5 8 -10 11 -10 2 0 4 5 4 10 0 6 -5 10 -11 10 -5 0
-7 -4 -4 -10z"/>
<path d="M11797 3295 c-4 -8 -2 -17 3 -20 6 -4 10 -11 10 -17 0 -6 -9 -3 -20
7 -11 10 -20 13 -20 7 0 -7 5 -12 11 -12 5 0 8 -4 5 -8 -2 -4 4 -9 15 -9 20
-2 27 21 9 32 -5 3 -7 12 -3 20 3 8 3 15 0 15 -3 0 -7 -7 -10 -15z"/>
<path d="M11913 3292 c1 -14 5 -18 11 -12 7 7 6 14 -1 21 -9 9 -12 7 -10 -9z"/>
<path d="M12207 3293 c4 -10 2 -14 -5 -9 -6 3 -14 1 -18 -5 -4 -8 -3 -9 5 -5
8 6 10 0 6 -21 -5 -27 -5 -27 5 -4 6 14 15 30 21 37 6 8 5 13 -5 17 -11 4 -13
1 -9 -10z"/>
<path d="M12262 3303 c-6 -2 -10 -9 -6 -14 3 -5 -1 -9 -9 -9 -7 0 -19 -11 -25
-25 -7 -15 -8 -25 -2 -25 6 0 10 5 10 11 0 18 50 60 62 53 7 -4 8 -2 4 4 -8
13 -13 14 -34 5z"/>
<path d="M11462 3281 c7 -11 16 -17 20 -15 4 3 8 -3 9 -13 0 -12 2 -13 6 -5 3
8 -4 22 -15 33 -27 24 -36 24 -20 0z"/>
<path d="M11497 3289 c7 -7 15 -10 18 -7 3 3 -2 9 -12 12 -14 6 -15 5 -6 -5z"/>
<path d="M11891 3284 c0 -11 3 -14 6 -6 3 7 2 16 -1 19 -3 4 -6 -2 -5 -13z"/>
<path d="M11428 3273 c7 -3 16 -2 19 1 4 3 -2 6 -13 5 -11 0 -14 -3 -6 -6z"/>
<path d="M11733 3264 c15 -8 27 -20 27 -26 0 -7 -5 -6 -15 2 -11 9 -15 9 -15
1 0 -7 -5 -9 -10 -6 -6 4 -8 11 -5 16 4 5 1 9 -4 9 -6 0 -11 -4 -11 -9 0 -13
26 -32 33 -24 4 3 13 1 20 -5 11 -9 14 -8 14 6 0 22 -26 52 -46 52 -10 -1 -5
-7 12 -16z"/>
<path d="M12275 3269 c-4 -6 -4 -13 -1 -16 3 -4 6 -1 6 6 0 7 5 9 12 5 7 -4 8
-3 4 4 -9 15 -13 15 -21 1z"/>
<path d="M11407 3233 c9 -14 11 -23 5 -23 -6 0 -16 8 -22 18 -10 15 -11 15 -6
0 3 -9 0 -19 -7 -21 -7 -2 5 -4 25 -4 37 1 37 2 23 24 -9 13 -11 23 -5 23 6 0
13 -7 17 -16 5 -13 7 -13 14 -2 14 22 10 26 -25 25 -33 -1 -33 -2 -19 -24z"/>
<path d="M11510 3240 c0 -5 5 -10 10 -10 6 0 10 5 10 10 0 6 -4 10 -10 10 -5
0 -10 -4 -10 -10z"/>
<path d="M11456 3207 l-18 -32 20 24 c16 20 22 22 40 12 29 -16 28 -7 -1 12
-23 15 -24 14 -41 -16z"/>
<path d="M11827 3226 c-4 -10 -1 -13 9 -9 7 3 14 9 14 14 0 14 -17 10 -23 -5z"/>
<path d="M11788 3223 c7 -3 16 -2 19 1 4 3 -2 6 -13 5 -11 0 -14 -3 -6 -6z"/>
<path d="M11480 3190 c20 -13 33 -13 25 0 -3 6 -14 10 -23 10 -15 0 -15 -2 -2
-10z"/>
<path d="M11386 3174 c-5 -14 -4 -15 9 -4 17 14 19 20 6 20 -5 0 -12 -7 -15
-16z"/>
<path d="M11411 3163 c-10 -26 -10 -27 4 -9 8 11 15 23 15 28 0 15 -7 8 -19
-19z"/>
<path d="M11448 3166 c-10 -7 -18 -17 -18 -21 0 -4 6 -2 13 4 8 6 18 7 22 3 5
-4 5 -2 2 5 -4 6 -1 14 5 16 7 3 9 6 3 6 -5 0 -18 -6 -27 -13z"/>
</g>
</svg>
